<svg id="Capa_1" enable-background="new 0 0 512 512" height="512" viewBox="0 0 512 512" width="512" xmlns="http://www.w3.org/2000/svg"><g><g><path d="m466 481h-40c-6.457 0-12.188-4.131-14.23-10.256l-20-60c-1.524-4.575-.757-9.603 2.062-13.514 2.819-3.912 7.346-6.23 12.168-6.23h60c8.284 0 15 6.716 15 15v60c0 8.284-6.716 15-15 15z" fill="#05303d"/></g><g><path d="m86 481h-40c-8.284 0-15-6.716-15-15v-60c0-8.284 6.716-15 15-15h60c4.822 0 9.349 2.318 12.168 6.229s3.586 8.939 2.062 13.514l-20 60c-2.042 6.126-7.773 10.257-14.23 10.257z" fill="#0a617d"/></g><g><g><path d="m466 281h-420c-8.284 0-15-6.716-15-15v-160c0-41.355 33.645-75 75-75h300c41.355 0 75 33.645 75 75v160c0 8.284-6.716 15-15 15z" fill="#0a617d"/></g><path d="m406 31h-150v250h210c8.284 0 15-6.716 15-15v-160c0-41.355-33.645-75-75-75z" fill="#05303d"/><g><path d="m406 261h-100c-13.807 0-25-11.193-25-25v-20c0-13.807 11.193-25 25-25h100c13.807 0 25 11.193 25 25v20c0 13.807-11.193 25-25 25z" fill="#c30047"/></g><g><path d="m81 236v-20c0-13.807 11.193-25 25-25h100c13.807 0 25 11.193 25 25v20c0 13.807-11.193 25-25 25h-100c-13.807 0-25-11.193-25-25z" fill="#ff405c"/></g></g><g><path d="m512 296c0-24.853-20.147-45-45-45h-422c-24.853 0-45 20.147-45 45v30c0 8.284 6.716 15 15 15h482c8.284 0 15-6.716 15-15z" fill="#ff6b6b"/><path d="m467 251h-211v90h241c8.284 0 15-6.716 15-15v-30c0-24.853-20.147-45-45-45z" fill="#ff405c"/><path d="m0 326v80c0 8.284 6.716 15 15 15h482c8.284 0 15-6.716 15-15v-80z" fill="#0a789b"/><path d="m256 421h241c8.284 0 15-6.716 15-15v-80h-256z" fill="#0a617d"/></g></g></svg>