<svg height="512pt" viewBox="-88 0 511 512" width="512pt" xmlns="http://www.w3.org/2000/svg"><path d="m35.808594 102.664062c-22.601563 21.574219-35.363282 51.472657-35.308594 82.714844v273.65625c.027344 9.738282 7.917969 17.625 17.65625 17.65625h300.136719c9.738281-.03125 17.625-7.917968 17.65625-17.65625v-273.65625c.054687-31.242187-12.710938-61.140625-35.3125-82.714844l-35.308594-23.214843c-13.988281-5.828125-28.988281-8.828125-44.136719-8.828125h-105.933594c-15.148437 0-30.152343 3-44.136718 8.828125zm0 0" fill="#7f5b53"/><path d="m35.808594 101.269531c-22.40625 20.210938-35.230469 48.945313-35.308594 79.121094v261.757813c.246094 9.523437 8.128906 17.0625 17.65625 16.886718h300.136719c9.527343.175782 17.410156-7.363281 17.65625-16.886718v-261.757813c-.078125-30.175781-12.902344-58.910156-35.3125-79.121094l-35.308594-22.199219c-14.042969-5.589843-29.023437-8.457031-44.136719-8.449218h-105.933594c-15.113281-.007813-30.09375 2.859375-44.136718 8.449218zm0 0" fill="#af8066"/><g fill="#2c3e50"><path d="m35.808594 476.691406h52.96875v17.652344c0 9.75-7.90625 17.65625-17.65625 17.65625h-17.65625c-9.75 0-17.65625-7.90625-17.65625-17.65625zm0 0"/><path d="m247.671875 476.691406h52.964844v17.652344c0 9.75-7.902344 17.65625-17.652344 17.65625h-17.65625c-9.75 0-17.65625-7.90625-17.65625-17.65625zm0 0"/><path d="m44.636719 61.792969h17.65625c4.875 0 8.828125 3.953125 8.828125 8.828125v406.070312h-35.3125v-406.070312c0-4.875 3.953125-8.828125 8.828125-8.828125zm0 0"/><path d="m274.15625 61.792969h17.652344c4.878906 0 8.828125 3.953125 8.828125 8.828125v406.070312h-35.308594v-406.070312c0-4.875 3.953125-8.828125 8.828125-8.828125zm0 0"/></g><path d="m44.636719 61.792969h17.65625c4.875 0 8.828125 3.953125 8.828125 8.828125v388.414062h-35.3125v-388.414062c0-4.875 3.953125-8.828125 8.828125-8.828125zm0 0" fill="#35495e"/><path d="m274.15625 61.792969h17.652344c4.878906 0 8.828125 3.953125 8.828125 8.828125v388.414062h-35.308594v-388.414062c0-4.875 3.953125-8.828125 8.828125-8.828125zm0 0" fill="#35495e"/><path d="m221.191406 26.484375v44.136719h-35.3125v-26.484375c0-4.875-3.953125-8.828125-8.828125-8.828125h-17.652343c-4.878907 0-8.828126 3.953125-8.828126 8.828125v26.484375h-35.3125v-44.136719c0-14.628906 11.859376-26.484375 26.484376-26.484375h52.964843c14.625 0 26.484375 11.855469 26.484375 26.484375zm0 0" fill="#35495e"/><path d="m194.707031 220.691406v-70.621094c0-4.875-3.953125-8.828124-8.828125-8.828124h-70.621094c-4.875 0-8.828124 3.953124-8.828124 8.828124v70.621094c0 4.875 3.953124 8.824219 8.828124 8.824219h43.160157c.648437 0 1.296875-.070313 1.933593-.210937h27.46875c4.027344-.90625 6.890626-4.484376 6.886719-8.613282zm0 0" fill="#f0c419"/><path d="m122.511719 376.828125 44.902343-28.089844c4.132813-2.585937 9.582032-1.332031 12.167969 2.800781l28.089844 44.902344c2.585937 4.132813 1.332031 9.582032-2.800781 12.167969l-44.90625 28.089844c-4.132813 2.585937-9.578125 1.332031-12.164063-2.804688l-28.089843-44.902343c-2.585938-4.132813-1.332032-9.578126 2.800781-12.164063zm0 0" fill="#4fba6f"/><path d="m230.015625 264.828125c0 24.375-19.757813 44.136719-44.136719 44.136719-24.375 0-44.136718-19.761719-44.136718-44.136719 0-24.378906 19.761718-44.136719 44.136718-44.136719 24.378906 0 44.136719 19.757813 44.136719 44.136719zm0 0" fill="#b49aca"/></svg>